<?xml version="1.0" encoding="UTF-8" standalone="no"?><svg xmlns="http://www.w3.org/2000/svg" xmlns:xlink="http://www.w3.org/1999/xlink" contentScriptType="application/ecmascript" contentStyleType="text/css" height="436px" preserveAspectRatio="none" style="width:871px;height:436px;" version="1.1" viewBox="0 0 871 436" width="871px" zoomAndPan="magnify"><defs><filter height="300%" id="f14or5bqvs6sd0" width="300%" x="-1" y="-1"><feGaussianBlur result="blurOut" stdDeviation="2.0"/><feColorMatrix in="blurOut" result="blurOut2" type="matrix" values="0 0 0 0 0 0 0 0 0 0 0 0 0 0 0 0 0 0 .4 0"/><feOffset dx="4.0" dy="4.0" in="blurOut2" result="blurOut3"/><feBlend in="SourceGraphic" in2="blurOut3" mode="normal"/></filter></defs><g><rect fill="#FFFFFF" filter="url(#f14or5bqvs6sd0)" height="243.9297" style="stroke: #A80036; stroke-width: 1.0;" width="10" x="20" y="96.2969"/><rect fill="#FFFFFF" filter="url(#f14or5bqvs6sd0)" height="222.7969" style="stroke: #A80036; stroke-width: 1.0;" width="10" x="314" y="117.4297"/><rect fill="#FFFFFF" filter="url(#f14or5bqvs6sd0)" height="155.5313" style="stroke: #A80036; stroke-width: 1.0;" width="10" x="530" y="146.5625"/><line style="stroke: #A80036; stroke-width: 1.0; stroke-dasharray: 5.0,5.0;" x1="25" x2="25" y1="86.2969" y2="349.2266"/><line style="stroke: #A80036; stroke-width: 1.0; stroke-dasharray: 5.0,5.0;" x1="319" x2="319" y1="86.2969" y2="349.2266"/><line style="stroke: #A80036; stroke-width: 1.0; stroke-dasharray: 5.0,5.0;" x1="535" x2="535" y1="86.2969" y2="349.2266"/><text fill="#000000" font-family="sans-serif" font-size="14" lengthAdjust="spacingAndGlyphs" textLength="28" x="8" y="82.9951">用户</text><ellipse cx="25" cy="13" fill="#FEFECE" filter="url(#f14or5bqvs6sd0)" rx="8" ry="8" style="stroke: #A80036; stroke-width: 2.0;"/><path d="M25,21 L25,48 M12,29 L38,29 M25,48 L12,63 M25,48 L38,63 " fill="none" filter="url(#f14or5bqvs6sd0)" style="stroke: #A80036; stroke-width: 2.0;"/><text fill="#000000" font-family="sans-serif" font-size="14" lengthAdjust="spacingAndGlyphs" textLength="28" x="8" y="361.2217">用户</text><ellipse cx="25" cy="374.5234" fill="#FEFECE" filter="url(#f14or5bqvs6sd0)" rx="8" ry="8" style="stroke: #A80036; stroke-width: 2.0;"/><path d="M25,382.5234 L25,409.5234 M12,390.5234 L38,390.5234 M25,409.5234 L12,424.5234 M25,409.5234 L38,424.5234 " fill="none" filter="url(#f14or5bqvs6sd0)" style="stroke: #A80036; stroke-width: 2.0;"/><rect fill="#FEFECE" filter="url(#f14or5bqvs6sd0)" height="30.2969" style="stroke: #A80036; stroke-width: 1.5;" width="56" x="289" y="51"/><text fill="#000000" font-family="sans-serif" font-size="14" lengthAdjust="spacingAndGlyphs" textLength="42" x="296" y="70.9951">客户端</text><rect fill="#FEFECE" filter="url(#f14or5bqvs6sd0)" height="30.2969" style="stroke: #A80036; stroke-width: 1.5;" width="56" x="289" y="348.2266"/><text fill="#000000" font-family="sans-serif" font-size="14" lengthAdjust="spacingAndGlyphs" textLength="42" x="296" y="368.2217">客户端</text><rect fill="#FFA500" filter="url(#f14or5bqvs6sd0)" height="30.2969" style="stroke: #A80036; stroke-width: 1.5;" width="56" x="505" y="51"/><text fill="#000000" font-family="sans-serif" font-size="14" lengthAdjust="spacingAndGlyphs" textLength="42" x="512" y="70.9951">服务端</text><rect fill="#FFA500" filter="url(#f14or5bqvs6sd0)" height="30.2969" style="stroke: #A80036; stroke-width: 1.5;" width="56" x="505" y="348.2266"/><text fill="#000000" font-family="sans-serif" font-size="14" lengthAdjust="spacingAndGlyphs" textLength="42" x="512" y="368.2217">服务端</text><rect fill="#FFFFFF" filter="url(#f14or5bqvs6sd0)" height="243.9297" style="stroke: #A80036; stroke-width: 1.0;" width="10" x="20" y="96.2969"/><rect fill="#FFFFFF" filter="url(#f14or5bqvs6sd0)" height="222.7969" style="stroke: #A80036; stroke-width: 1.0;" width="10" x="314" y="117.4297"/><rect fill="#FFFFFF" filter="url(#f14or5bqvs6sd0)" height="155.5313" style="stroke: #A80036; stroke-width: 1.0;" width="10" x="530" y="146.5625"/><polygon fill="#A80036" points="302,113.4297,312,117.4297,302,121.4297,306,117.4297" style="stroke: #A80036; stroke-width: 1.0;"/><line style="stroke: #A80036; stroke-width: 1.0;" x1="30" x2="308" y1="117.4297" y2="117.4297"/><text fill="#000000" font-family="sans-serif" font-size="13" font-weight="bold" lengthAdjust="spacingAndGlyphs" textLength="9" x="37" y="112.3638">1</text><text fill="#000000" font-family="sans-serif" font-size="13" lengthAdjust="spacingAndGlyphs" textLength="55" x="50" y="112.3638">输入 URL</text><polygon fill="#A80036" points="518,142.5625,528,146.5625,518,150.5625,522,146.5625" style="stroke: #A80036; stroke-width: 1.0;"/><line style="stroke: #A80036; stroke-width: 1.0;" x1="324" x2="524" y1="146.5625" y2="146.5625"/><text fill="#000000" font-family="sans-serif" font-size="13" font-weight="bold" lengthAdjust="spacingAndGlyphs" textLength="9" x="331" y="141.4966">2</text><text fill="#000000" font-family="sans-serif" font-size="13" lengthAdjust="spacingAndGlyphs" textLength="65" x="344" y="141.4966">请求服务器</text><line style="stroke: #A80036; stroke-width: 1.0;" x1="540" x2="582" y1="175.6953" y2="175.6953"/><line style="stroke: #A80036; stroke-width: 1.0;" x1="582" x2="582" y1="175.6953" y2="188.6953"/><line style="stroke: #A80036; stroke-width: 1.0;" x1="541" x2="582" y1="188.6953" y2="188.6953"/><polygon fill="#A80036" points="551,184.6953,541,188.6953,551,192.6953,547,188.6953" style="stroke: #A80036; stroke-width: 1.0;"/><text fill="#000000" font-family="sans-serif" font-size="13" font-weight="bold" lengthAdjust="spacingAndGlyphs" textLength="9" x="547" y="170.6294">3</text><text fill="#000000" font-family="sans-serif" font-size="13" lengthAdjust="spacingAndGlyphs" textLength="91" x="560" y="170.6294">分析客户端请求</text><line style="stroke: #A80036; stroke-width: 1.0;" x1="540" x2="582" y1="217.8281" y2="217.8281"/><line style="stroke: #A80036; stroke-width: 1.0;" x1="582" x2="582" y1="217.8281" y2="230.8281"/><line style="stroke: #A80036; stroke-width: 1.0;" x1="541" x2="582" y1="230.8281" y2="230.8281"/><polygon fill="#A80036" points="551,226.8281,541,230.8281,551,234.8281,547,230.8281" style="stroke: #A80036; stroke-width: 1.0;"/><text fill="#000000" font-family="sans-serif" font-size="13" font-weight="bold" lengthAdjust="spacingAndGlyphs" textLength="9" x="547" y="212.7622">4</text><text fill="#000000" font-family="sans-serif" font-size="13" lengthAdjust="spacingAndGlyphs" textLength="247" x="560" y="212.7622">依据上一步的分析结果，处理具体业务逻辑</text><line style="stroke: #A80036; stroke-width: 1.0;" x1="540" x2="582" y1="259.9609" y2="259.9609"/><line style="stroke: #A80036; stroke-width: 1.0;" x1="582" x2="582" y1="259.9609" y2="272.9609"/><line style="stroke: #A80036; stroke-width: 1.0;" x1="541" x2="582" y1="272.9609" y2="272.9609"/><polygon fill="#A80036" points="551,268.9609,541,272.9609,551,276.9609,547,272.9609" style="stroke: #A80036; stroke-width: 1.0;"/><text fill="#000000" font-family="sans-serif" font-size="13" font-weight="bold" lengthAdjust="spacingAndGlyphs" textLength="9" x="547" y="254.895">5</text><text fill="#000000" font-family="sans-serif" font-size="13" lengthAdjust="spacingAndGlyphs" textLength="299" x="560" y="254.895">响应处理结果（如：返回一段 HTML，一张图片等）</text><polygon fill="#A80036" points="335,298.0938,325,302.0938,335,306.0938,331,302.0938" style="stroke: #A80036; stroke-width: 1.0;"/><line style="stroke: #A80036; stroke-width: 1.0;" x1="329" x2="534" y1="302.0938" y2="302.0938"/><text fill="#000000" font-family="sans-serif" font-size="13" font-weight="bold" lengthAdjust="spacingAndGlyphs" textLength="9" x="341" y="297.0278">6</text><text fill="#000000" font-family="sans-serif" font-size="13" lengthAdjust="spacingAndGlyphs" textLength="169" x="354" y="297.0278">返回 数据资源（如：HTML）</text><polygon fill="#A80036" points="41,327.2266,31,331.2266,41,335.2266,37,331.2266" style="stroke: #A80036; stroke-width: 1.0;"/><line style="stroke: #A80036; stroke-width: 1.0;" x1="35" x2="313" y1="331.2266" y2="331.2266"/><text fill="#000000" font-family="sans-serif" font-size="13" font-weight="bold" lengthAdjust="spacingAndGlyphs" textLength="9" x="47" y="326.1606">7</text><text fill="#000000" font-family="sans-serif" font-size="13" lengthAdjust="spacingAndGlyphs" textLength="247" x="60" y="326.1606">用户看到浏览器处理后的数据（如：渲染）</text></g></svg>